HIERARCHY
ROOT Hips
{
	OFFSET -14.64140 90.27770 -84.91600
	CHANNELS 6 Xposition Yposition Zposition Zrotation Xrotation Yrotation
	JOINT Spine
	{
		OFFSET 0.00000 13.20850 -1.60436
		CHANNELS 3 Zrotation Xrotation Yrotation
		JOINT Spine1
		{
			OFFSET 0.00000 8.61716 0.00000
			CHANNELS 3 Zrotation Xrotation Yrotation
			JOINT Spine2
			{
				OFFSET 0.00000 8.61717 0.00000
				CHANNELS 3 Zrotation Xrotation Yrotation
				JOINT Spine3
				{
					OFFSET 0.00000 8.61717 0.00000
					CHANNELS 3 Zrotation Xrotation Yrotation
					JOINT Neck
					{
						OFFSET 0.00000 11.07920 1.10792
						CHANNELS 3 Zrotation Xrotation Yrotation
						JOINT Neck1
						{
							OFFSET 0.00000 7.08032 0.00000
							CHANNELS 3 Zrotation Xrotation Yrotation
							JOINT Head
							{
								OFFSET 0.00000 7.08031 0.00000
								CHANNELS 3 Zrotation Xrotation Yrotation
								End site
								{
									OFFSET 0.00000 0.00000 0.00000
								}
							}
						}
					}
					JOINT RightShoulder
					{
						OFFSET -0.01000 7.91373 5.19711
						CHANNELS 3 Zrotation Xrotation Yrotation
						JOINT RightArm
						{
							OFFSET -18.41580 0.00000 0.00000
							CHANNELS 3 Zrotation Xrotation Yrotation
							JOINT RightForeArm
							{
								OFFSET -29.11090 0.00000 0.00000
								CHANNELS 3 Zrotation Xrotation Yrotation
								JOINT RightHand
								{
									OFFSET -24.65040 0.00000 0.00000
									CHANNELS 3 Zrotation Xrotation Yrotation
									JOINT RightHandThumb1
									{
										OFFSET -5.35114 -0.85590 3.97906
										CHANNELS 3 Zrotation Xrotation Yrotation
										JOINT RightHandThumb2
										{
											OFFSET -4.52789 0.00000 0.00000
											CHANNELS 3 Zrotation Xrotation Yrotation
											JOINT RightHandThumb3
											{
												OFFSET -2.46976 0.00000 0.00000
												CHANNELS 3 Zrotation Xrotation Yrotation
												End site
												{
													OFFSET 0.00000 0.00000 0.00000
												}
											}
										}
									}
									JOINT RightHandIndex1
									{
										OFFSET -14.26970 0.00000 2.88139
										CHANNELS 3 Zrotation Xrotation Yrotation
										JOINT RightHandIndex2
										{
											OFFSET -5.48836 0.00000 0.00000
											CHANNELS 3 Zrotation Xrotation Yrotation
											JOINT RightHandIndex3
											{
												OFFSET -3.01859 0.00000 0.00000
												CHANNELS 3 Zrotation Xrotation Yrotation
												End site
												{
													OFFSET 0.00000 0.00000 0.00000
												}
											}
										}
									}
									JOINT RightHandMiddle1
									{
										OFFSET -14.26970 0.00000 -0.09147
										CHANNELS 3 Zrotation Xrotation Yrotation
										JOINT RightHandMiddle2
										{
											OFFSET -6.17441 0.00000 0.00000
											CHANNELS 3 Zrotation Xrotation Yrotation
											JOINT RightHandMiddle3
											{
												OFFSET -3.56743 0.00000 0.00000
												CHANNELS 3 Zrotation Xrotation Yrotation
												End site
												{
													OFFSET 0.00000 0.00000 0.00000
												}
											}
										}
									}
									JOINT RightHandRing1
									{
										OFFSET -12.69180 0.00000 -3.06433
										CHANNELS 3 Zrotation Xrotation Yrotation
										JOINT RightHandRing2
										{
											OFFSET -5.62556 0.00000 0.00000
											CHANNELS 3 Zrotation Xrotation Yrotation
											JOINT RightHandRing3
											{
												OFFSET -3.56744 0.00000 0.00000
												CHANNELS 3 Zrotation Xrotation Yrotation
												End site
												{
													OFFSET 0.00000 0.00000 0.00000
												}
											}
										}
									}
									JOINT RightHandPinky1
									{
										OFFSET -11.11390 0.00000 -6.03719
										CHANNELS 3 Zrotation Xrotation Yrotation
										JOINT RightHandPinky2
										{
											OFFSET -4.52789 0.00000 0.00000
											CHANNELS 3 Zrotation Xrotation Yrotation
											JOINT RightHandPinky3
											{
												OFFSET -2.46976 0.00000 0.00000
												CHANNELS 3 Zrotation Xrotation Yrotation
												End site
												{
													OFFSET 0.00000 0.00000 0.00000
												}
											}
										}
									}
								}
							}
						}
					}
					JOINT LeftShoulder
					{
						OFFSET 0.01000 7.91373 5.19711
						CHANNELS 3 Zrotation Xrotation Yrotation
						JOINT LeftArm
						{
							OFFSET 18.41580 0.00000 0.00000
							CHANNELS 3 Zrotation Xrotation Yrotation
							JOINT LeftForeArm
							{
								OFFSET 29.11090 0.00000 0.00000
								CHANNELS 3 Zrotation Xrotation Yrotation
								JOINT LeftHand
								{
									OFFSET 24.65040 0.00000 0.00000
									CHANNELS 3 Zrotation Xrotation Yrotation
									JOINT LeftHandThumb1
									{
										OFFSET 5.35114 -0.85590 3.97906
										CHANNELS 3 Zrotation Xrotation Yrotation
										JOINT LeftHandThumb2
										{
											OFFSET 4.52789 0.00000 0.00000
											CHANNELS 3 Zrotation Xrotation Yrotation
											JOINT LeftHandThumb3
											{
												OFFSET 2.46977 0.00000 0.00000
												CHANNELS 3 Zrotation Xrotation Yrotation
												End site
												{
													OFFSET 0.00000 0.00000 0.00000
												}
											}
										}
									}
									JOINT LeftHandIndex1
									{
										OFFSET 14.26970 0.00000 2.88139
										CHANNELS 3 Zrotation Xrotation Yrotation
										JOINT LeftHandIndex2
										{
											OFFSET 5.48836 0.00000 0.00000
											CHANNELS 3 Zrotation Xrotation Yrotation
											JOINT LeftHandIndex3
											{
												OFFSET 3.01859 0.00000 0.00000
												CHANNELS 3 Zrotation Xrotation Yrotation
												End site
												{
													OFFSET 0.00000 0.00000 0.00000
												}
											}
										}
									}
									JOINT LeftHandMiddle1
									{
										OFFSET 14.26970 0.00000 -0.09147
										CHANNELS 3 Zrotation Xrotation Yrotation
										JOINT LeftHandMiddle2
										{
											OFFSET 6.17440 0.00000 0.00000
											CHANNELS 3 Zrotation Xrotation Yrotation
											JOINT LeftHandMiddle3
											{
												OFFSET 3.56744 0.00000 0.00000
												CHANNELS 3 Zrotation Xrotation Yrotation
												End site
												{
													OFFSET 0.00000 0.00000 0.00000
												}
											}
										}
									}
									JOINT LeftHandRing1
									{
										OFFSET 12.69180 0.00000 -3.06433
										CHANNELS 3 Zrotation Xrotation Yrotation
										JOINT LeftHandRing2
										{
											OFFSET 5.62556 0.00000 0.00000
											CHANNELS 3 Zrotation Xrotation Yrotation
											JOINT LeftHandRing3
											{
												OFFSET 3.56744 0.00000 0.00000
												CHANNELS 3 Zrotation Xrotation Yrotation
												End site
												{
													OFFSET 0.00000 0.00000 0.00000
												}
											}
										}
									}
									JOINT LeftHandPinky1
									{
										OFFSET 11.11390 0.00000 -6.03719
										CHANNELS 3 Zrotation Xrotation Yrotation
										JOINT LeftHandPinky2
										{
											OFFSET 4.52789 0.00000 0.00000
											CHANNELS 3 Zrotation Xrotation Yrotation
											JOINT LeftHandPinky3
											{
												OFFSET 2.46976 0.00000 0.00000
												CHANNELS 3 Zrotation Xrotation Yrotation
												End site
												{
													OFFSET 0.00000 0.00000 0.00000
												}
											}
										}
									}
								}
							}
						}
					}
					JOINT pCube4
					{
						OFFSET 0.00000 10.91090 1.10792
						CHANNELS 3 Zrotation Xrotation Yrotation
						End site
						{
							OFFSET 0.00000 0.00000 0.00000
						}
					}
				}
			}
		}
	}
	JOINT RightUpLeg
	{
		OFFSET -9.98441 0.00000 0.00000
		CHANNELS 3 Zrotation Xrotation Yrotation
		JOINT RightLeg
		{
			OFFSET 0.00000 -42.11790 0.00000
			CHANNELS 3 Zrotation Xrotation Yrotation
			JOINT RightFoot
			{
				OFFSET 0.00000 -45.00020 -0.00001
				CHANNELS 3 Zrotation Xrotation Yrotation
				JOINT RightForeFoot
				{
					OFFSET 0.00000 -3.74820 0.00000
					CHANNELS 3 Zrotation Xrotation Yrotation
					JOINT RightToeBase
					{
						OFFSET 0.00000 0.06325 14.43120
						CHANNELS 3 Zrotation Xrotation Yrotation
						End site
						{
							OFFSET 0.00000 0.00000 0.00000
						}
					}
				}
			}
		}
	}
	JOINT LeftUpLeg
	{
		OFFSET 9.98441 0.00000 0.00000
		CHANNELS 3 Zrotation Xrotation Yrotation
		JOINT LeftLeg
		{
			OFFSET 0.00000 -42.11800 0.00000
			CHANNELS 3 Zrotation Xrotation Yrotation
			JOINT LeftFoot
			{
				OFFSET 0.00000 -45.00070 0.00000
				CHANNELS 3 Zrotation Xrotation Yrotation
				JOINT LeftForeFoot
				{
					OFFSET 0.00000 -3.74824 0.00000
					CHANNELS 3 Zrotation Xrotation Yrotation
					JOINT LeftToeBase
					{
						OFFSET 0.00000 0.06325 14.43110
						CHANNELS 3 Zrotation Xrotation Yrotation
						End site
						{
							OFFSET 0.00000 0.00000 0.00000
						}
					}
				}
			}
		}
	}
}
MOTION
Frames: 4
Frame Time: 0.050000
0.033911222077278105 -0.013176872215998793 -0.0448731610783262 -0.014665872165415376 -0.026718777285930934 0.004836435678615492 -3.724531809469028 4.2080031593899 -0.6031203178112863 -1.0733067674257795 3.9072705718169156 0.38219103674529176 -1.3477322895015178 -0.9976717305202052 -0.13895975783386386 0.39879457352741376 0.8192591972927514 -0.781485908280724 0.65941164765627 12.13686785364048 -2.2259322375030877 -0.40746711890890985 -1.792598704920739 -9.014100597970614 0.5464366454493653 -18.022390122017814 -0.7538833605409294 -3.6136879583266883 1.5746497078214823 -13.110303893085868 69.86912037718876 15.005322896857884 22.66853091217832 6.844742327862505 5.085829233344804 84.6778174505125 13.471571868738284 -0.49757737259599655 -4.429414635004097 4.5140080316130655 -0.11536496761072253 -1.5879828173580681 -0.0016719025122885866 -0.02503717109953655 -56.256045653569345 0.012545341640717826 -0.02988119140184219 -56.230418833061144 -38.78063588890597 -0.03637928116573428 -0.022504177909779106 0.04336017292237597 0.014563417406531585 0.025617968560228934 -0.009372053698085107 -0.030400171666128736 0.03617565025628257 -36.67372387842002 -0.03905375930314106 0.03883653443637444 -0.021701220860544778 -0.008247466786631954 0.006098233235827388 -0.045450853876003824 0.034857905072139185 0.029307620844005393 -19.781367489346355 0.013426824569622096 0.032077332601233965 0.04152680101634771 0.007626684367112153 -0.017181971443952223 -0.042302061271704744 0.033385723624235995 -0.021861016552708733 24.038899991817146 -0.006145716497812422 0.007888909410229792 28.884123595587493 -0.0241810694081339 0.0242800097818159 28.908499034211747 -0.03818991263787698 0.0025392269971812502 1.3857131319392992 0.5734961429964378 11.692550168192415 -66.0045104194426 26.037603169946888 -7.437812303415555 6.8668125733292955 -13.410930244498243 -52.87967506783771 -8.872365714074506 2.578180354177115 0.6372504414005238 -0.44599204613952786 0.04896812450357695 -8.118319504354332 0.004600237625371848 0.033495994214129014 44.524515409853336 -0.023063783276332028 0.046138063463151 44.55269514299439 12.43500824886784 0.009134967493706068 0.023271548044592368 -0.04947867153669572 0.040576724504819264 -0.009271282069808935 0.005900811741062526 0.04025555193175041 0.007745698589804754 11.078361620037219 -0.02185749591383291 0.02071039498583704 0.01795055588774491 0.0391935234935387 -0.03893304696375317 -0.03389669802798539 -0.04240751857182345 -0.03888737560010214 4.788885221530541 -0.001530602806636308 0.030072849135198955 -0.0026441076069563195 0.017109992643656324 0.03215394677312448 0.0011778278244308704 0.0018912293762146167 0.007078637927756809 -5.629679022742041 -0.03581784311027262 0.010642180870430697 -6.763925801838502 0.03999253000066901 0.03778331920730339 -6.699870267148701 0.026405091419414325 -0.02689621041282994 0.04133884424086091 0.03218445393459637 0.034051927273319654 8.012507998284294 3.529574732639004 -19.216045198170878 0.016234145985313597 10.387233106235579 -0.03031401947472832 -5.630415702237628 -15.64541368872876 3.2170286000032764 0.014988390516939794 -0.02902629954448013 -0.025312561650899054 0.00475820877098922 4.694220898232549 0.04096432885215458 12.465684873693485 -8.20506807175825 6.864745015089428 0.0009154018201519415 46.395904654798976 0.034839168528817334 -4.298571090867609 -14.740950998915796 -3.8603451620974667 0.009251855872627161 -0.004778209512313382 -0.001131584100214581 0.017004130906320136 -10.781634685535556 -0.041544019250675246 
0.04575115742160237 -0.04658236615118494 -0.00031668996944943565 0.013111798857745783 -0.042324291922585744 -0.007774846995349258 -3.5041895291647167 3.9634446901502143 -0.656623680592044 -1.026210886546687 3.93881276436548 0.37828259824610055 -1.3084912358460834 -1.0823962692923341 -0.06922580605181919 0.38724540141581265 0.7658859022515458 -0.7334001866714724 0.652659079084419 12.425171668117544 -2.0479074252833835 -0.36493478207782815 -1.799440120335491 -8.3646101693735 0.5245669191347861 -17.941960246196942 -0.6499479136855388 -4.152836098725326 1.633124297057265 -13.357769171988812 70.43763358148331 14.555622650253238 21.94993237241728 4.464413333706023 4.9896062881862875 82.55884118465367 13.242952567306803 -0.49054397230090385 -4.120840433934184 4.5434810704178235 -0.11258678734657394 -1.6013378657524238 0.005403763971701312 0.03492721412268339 -56.225969785059156 0.0008290576629016244 -0.01694565368217071 -56.20226879587584 -38.801884046425556 -0.0034282124126744384 -0.0002816772604195425 0.00849312767218317 -0.01683274120728469 0.02820814870169696 0.04116820430558853 -0.006664739418442014 -0.0447619551345822 -36.64533673728145 0.02927711223607416 -0.033776656669662605 0.022316964851272634 0.010364030380006823 -0.002023345968158417 -0.0018015108088949073 0.016963231852208254 0.025333367483296686 -19.734015401200004 0.04508221924352998 0.049475306392403114 -0.0005214357040317268 -0.03717136482706574 -0.004512249889360323 0.01447739424395103 -0.042033743368423894 0.004191159124710797 24.052230290064774 0.03972515738361446 0.03825774780600408 28.82010942526269 -0.04142396379279154 0.0431854816423773 28.889883856197212 0.039235830606451624 0.04673448346771067 1.999771817816271 0.7225580073397222 11.820029314268163 -66.41010805810718 26.137529090416713 -7.644679690507641 6.464869038992432 -13.527163693686418 -52.83413299485733 -9.062601585690764 1.9537080756168217 0.9411357078869186 -0.4956058173375852 0.07144062436384385 -8.129381661548823 -0.005232292772243679 -0.03588725481451826 44.52740042911365 -0.013328759890362163 -0.021157950202048758 44.57034671257724 12.45240075568818 0.011204705656206597 0.04713867478383514 0.010682497979019804 0.015144556367322448 -0.015988176610280028 0.023985929433212937 0.04998655726767888 0.03166732308594425 11.075723989310235 0.01234400345923901 0.009227089539574348 -0.0415498543910486 0.04273355915920087 0.0193259775203854 -0.0104124155910705 -0.033257623905051874 -0.011852692422838654 4.724471518332931 0.04748545010220107 0.018819277188607233 -0.005382060064654157 -0.011173963506653178 -0.017335303727491407 -0.00027752484601816527 -0.019968355560629508 -0.006204621775335473 -5.582987701537961 -0.019648223912937197 -0.03434315015078764 -6.709544441705323 0.014282620127848734 -0.03259272629066066 -6.675748049101026 -0.037062442557464284 0.04451043347121364 -0.017162409276222097 0.0037949757633067354 -0.015089829994571258 8.024253755364743 3.4509072812162462 -19.22456661884015 0.007829449588655203 10.407304328399208 -0.002402791259105464 -5.62840765732695 -15.691180444891085 3.2189367446089645 -0.029266847398183752 -0.0065882782129759124 -0.007102600337272073 0.028911532765045912 4.688925208190482 0.025903078551408647 12.441881797212634 -8.207988734407259 6.903336916808199 0.04314896284898495 46.348608963932485 0.014545422440875703 -4.282494589145411 -14.78037298462906 -3.814575541806319 0.02291468454148778 -0.03376181900832557 0.014393353092096163 -0.03540736811900041 -10.76235280302604 -0.0274696426097195 
-0.031019860016639884 0.0423953673942824 0.020424416146225532 -0.035238712767138004 -0.007768604727514734 -0.045076962213467076 -3.2251081623856463 3.768444809487424 -0.6998813765452615 -1.070898081180315 3.918553012959258 0.455485349838808 -1.3567573283328445 -1.13811261569112 -0.06898398937227514 0.34246702834524795 0.7930940095412614 -0.7819703933655618 0.5758126061609237 12.771339693266524 -1.9852671894280838 -0.3467012411724901 -1.6069625567920864 -7.866504921479147 0.5382653076376479 -17.842218522677307 -0.6679340598784458 -4.602373558430585 1.7602953586145629 -13.59220280739996 70.93996837924834 14.755364975482806 21.091072210336794 1.6213131052120535 4.712304952917879 79.20622840679273 13.281014849024487 -0.42170123068686816 -3.7727499186009106 4.541527847478135 -0.14719861999994022 -1.5971313523533368 0.015132554162171376 0.0011476448479050265 -56.20999149763853 -0.0031033917039130416 -0.020720085227464526 -56.210215723310306 -38.7926497220564 -0.04561402198712746 0.03821458703535291 0.034786016467718436 0.009594499888313244 0.04143181540450795 -0.0036977143437275425 0.016657527508743827 0.021720146998633474 -36.74074839645131 -0.03981247137074585 0.02958743703671982 0.0052074250906000985 0.012746510469909456 0.04063447379475326 0.019128031241195546 -0.020744776769624506 0.032295508912510214 -19.723121861277182 -0.03665573449669385 0.007263049375551325 0.04828184344219936 0.047300282074266585 -0.0027160701608377586 0.040576689667722404 0.0037377169056372742 -0.0486081009440267 24.083990619556303 -0.012535591355780243 -0.047827101590843434 28.860475054879316 -0.028605378980313848 0.004322125198364342 28.843181790439196 0.04500964212224713 -0.0076758663574102454 2.6724082105046465 0.8391364336759902 12.110335756875035 -66.37764006094066 26.390463677917978 -8.104987800214893 6.070329741700486 -13.583004941238736 -53.03163841450025 -9.30322946893 1.3866072979564816 1.3117512042549178 -0.5209532478651232 0.049996849253640244 -8.15798725936481 -0.0008613114375594158 0.0329717442301502 44.572253472916245 0.032149183409082224 -0.03532556249783627 44.584173789919866 12.468078811021291 0.04795716209264772 0.046818430336762 -0.015149984929812801 0.042101535954573464 -0.03225806903313659 0.027814570349546597 0.005485633138396104 -0.03627826281893316 11.126792019889688 0.015571938251721689 0.03337061631278877 -0.049921983015212994 0.027764497661688255 0.04093086737810204 -0.02030865886011158 0.02538007191040332 0.036194254786828514 4.815090314728328 -0.0461403975864669 -0.02671992201254843 0.022390931398980327 -0.010837795351221959 -0.00642936454010522 -0.030293094558270863 0.014696129627447692 0.03661391335354499 -5.569201935643168 0.03807427957790027 0.0495518683706381 -6.731495358467114 0.03714203361944797 0.02398591736831928 -6.714308166312217 0.03144338729301378 0.0046910521803038615 0.012919364093844997 0.0053170128923897475 0.023213595981110294 8.031941407837776 3.470949363444846 -19.261007991154273 0.006155938897870028 10.352613525259304 0.039901092970845556 -5.60126298340069 -15.643272972016982 3.2147244330672775 -0.049907022558398066 -0.021659705661326696 -0.0020056728111273446 -0.034159747031443144 4.657572031344799 0.04253575458407141 12.475881176579458 -8.2361195294635 6.893081340504436 -0.047406218767705996 46.414781039097306 0.015134592084193925 -4.283403913958802 -14.789024646797634 -3.838714569489657 -0.029065407430611034 -0.03827341575568442 0.0011131025437375254 -0.03412184389699036 -10.722784238650444 -0.00803857099471526 
-0.024027232507301644 0.01543166750923501 0.013127308893028398 0.030007342766451558 -0.03193193359921826 -0.024731945705449704 -2.930176806263732 3.4208298706634572 -0.7018207299761363 -1.0713956657403583 3.891917502712745 0.38717310224712403 -1.2731871232782697 -1.2961575759053952 0.03909838219832553 0.1953373454383633 0.6828698735806877 -0.7393560900869164 0.5192738802065245 13.06658120057367 -1.8548702996398887 -0.27047369509869534 -1.3990068224165122 -7.523986222585847 0.522409015057265 -17.49256879877143 -0.6309050013702859 -5.2924294796443965 1.95686160185852 -13.69918215247422 71.3267937433268 13.989516806217168 21.45970618252677 0.1466139367135425 4.1710739569053406 78.02938413077727 13.093244566304872 -0.4253694948873703 -3.3686397931742307 4.523334061250789 -0.1673212982925054 -1.5652603902309479 -0.018559936365573154 0.025738707672545765 -56.22477261105035 -0.006114073751581739 0.026089482148896306 -56.20577844965894 -38.769556244029545 0.03200630622610079 0.013496543175514039 0.0019056409389705143 0.04953398779733169 -0.022854615514550237 -0.004378552228249958 -0.04264298760160079 -0.0069386569237434295 -36.69823823466296 -0.006071799005435711 0.010461011157128705 0.041651316048008896 -0.017028719833777458 0.005374478948072012 -0.01921077929067969 0.024475144007276205 0.015405877234734496 -19.80140944366783 0.004527015059352856 -0.02426660386638055 -0.045988783733641916 0.0010105443204033134 0.010298975811095205 0.010594491568507735 0.013855690904738578 -0.018212935069190375 24.097763926074983 0.004312771604967718 -0.048751536418760934 28.89793133129956 0.036743736416934014 0.037827540236664445 28.855705107281278 -0.03784947890251676 -0.023129945423936628 3.515464874763512 0.9890986697877687 12.27904860050091 -66.44616973193956 25.76851627451614 -9.362453659554705 5.661245140412283 -13.499821215563074 -53.861245522211654 -9.029232158489416 0.9326785530885681 1.5810889513289725 -0.5043455294959682 0.10467993130697262 -8.134189378760594 -0.008781921723782546 0.007895546943347253 44.55554217813482 -0.0006203711287913202 0.02504774195877276 44.57642011825624 12.45179545268778 0.0003838355130050453 -0.029565156069417578 -0.03849409175263769 0.00017248351426454094 0.009952154543826424 0.021194064025494782 -0.04792259715505147 -0.026380223067998358 11.091602224159823 0.027981165575071097 -0.030589191639329688 -0.024994692899947147 -0.025492148634123232 -0.016023236443131 -0.006899546964096559 -0.04515414897345891 -0.017519649014005323 4.738511398002432 -0.011108553023005091 -0.04789854724165093 -0.039824200229675866 -0.037800464503041475 0.03061764979773112 -0.023777308139203104 -0.010895804076061251 -0.013575067899481996 -5.611444013071938 -0.008013943839394497 -0.029353859652086412 -6.742473888134622 0.020280669701819742 0.023437490740525903 -6.701267604857416 -0.010476417055103056 -0.03188091068460353 -0.001050792108350809 0.015539526851733064 0.004198261137418326 8.077383378458457 3.5036394936747084 -19.244347784061105 -0.03801914900282752 10.365832424851545 -0.009307221483966555 -5.6218311321841 -15.625189132014725 3.20140997674576 0.04096696281866661 -0.006217120574717963 -0.03274721284973112 -0.020227863983276778 4.746531320820194 0.023598214945949054 12.4843077890554 -8.21327567180197 6.912209521308926 -0.0008622382489843376 46.386545767491725 -0.0023812744485922858 -4.3042234413306355 -14.742521126364519 -3.8227911209053915 0.01454432505746199 0.004274339773156188 -0.001153663228223194 -0.008298950648778988 -10.781817695163072 -0.03947299624341541 
